<svg width="429" height="433" viewBox="0 0 429 433" fill="none" xmlns="http://www.w3.org/2000/svg">
<path d="M1 24C1 12.6863 1 7.02944 4.51472 3.51472C8.02944 0 13.6863 0 25 0H405C416.314 0 421.971 0 425.485 3.51472C429 7.02944 429 12.6863 429 24V409C429 420.314 429 425.971 425.485 429.485C421.971 433 416.314 433 405 433H25C13.6863 433 8.02944 433 4.51472 429.485C1 425.971 1 420.314 1 409V24Z" fill="white"/>
<path d="M1 24C1 12.6863 1 7.02944 4.51472 3.51472C8.02944 0 13.6863 0 25 0H405C416.314 0 421.971 0 425.485 3.51472C429 7.02944 429 12.6863 429 24V409C429 420.314 429 425.971 425.485 429.485C421.971 433 416.314 433 405 433H25C13.6863 433 8.02944 433 4.51472 429.485C1 425.971 1 420.314 1 409V24Z" fill="#8F68FF"/>
</svg>
