<svg width="429" height="181" viewBox="0 0 429 181" fill="none" xmlns="http://www.w3.org/2000/svg">
<path d="M0 24C0 12.6863 0 7.02944 3.51472 3.51472C7.02944 0 12.6863 0 24 0H405C416.314 0 421.971 0 425.485 3.51472C429 7.02944 429 12.6863 429 24V157C429 168.314 429 173.971 425.485 177.485C421.971 181 416.314 181 405 181H24C12.6863 181 7.02944 181 3.51472 177.485C0 173.971 0 168.314 0 157V24Z" fill="white"/>
<path d="M0 24C0 12.6863 0 7.02944 3.51472 3.51472C7.02944 0 12.6863 0 24 0H405C416.314 0 421.971 0 425.485 3.51472C429 7.02944 429 12.6863 429 24V157C429 168.314 429 173.971 425.485 177.485C421.971 181 416.314 181 405 181H24C12.6863 181 7.02944 181 3.51472 177.485C0 173.971 0 168.314 0 157V24Z" fill="#8F68FF"/>
</svg>
