<svg width="424" height="429" viewBox="0 0 424 429" fill="none" xmlns="http://www.w3.org/2000/svg">
<path d="M0 24C0 12.6863 0 7.02944 3.51472 3.51472C7.02944 0 12.6863 0 24 0H400C411.314 0 416.971 0 420.485 3.51472C424 7.02944 424 12.6863 424 24V405C424 416.314 424 421.971 420.485 425.485C416.971 429 411.314 429 400 429H24C12.6863 429 7.02944 429 3.51472 425.485C0 421.971 0 416.314 0 405V24Z" fill="white"/>
<path d="M0 24C0 12.6863 0 7.02944 3.51472 3.51472C7.02944 0 12.6863 0 24 0H400C411.314 0 416.971 0 420.485 3.51472C424 7.02944 424 12.6863 424 24V405C424 416.314 424 421.971 420.485 425.485C416.971 429 411.314 429 400 429H24C12.6863 429 7.02944 429 3.51472 425.485C0 421.971 0 416.314 0 405V24Z" fill="#8F68FF"/>
</svg>
