<svg width="1195" height="153" viewBox="0 0 1195 153" fill="none" xmlns="http://www.w3.org/2000/svg">
<path d="M0.5 24.5C0.5 13.1863 0.5 7.52944 4.01472 4.01472C7.52944 0.5 13.1863 0.5 24.5 0.5H1170.5C1181.81 0.5 1187.47 0.5 1190.99 4.01472C1194.5 7.52944 1194.5 13.1863 1194.5 24.5V128.5C1194.5 139.814 1194.5 145.471 1190.99 148.985C1187.47 152.5 1181.81 152.5 1170.5 152.5H24.5C13.1863 152.5 7.52944 152.5 4.01472 148.985C0.5 145.471 0.5 139.814 0.5 128.5V24.5Z" fill="white"/>
<path d="M0.5 24.5C0.5 13.1863 0.5 7.52944 4.01472 4.01472C7.52944 0.5 13.1863 0.5 24.5 0.5H1170.5C1181.81 0.5 1187.47 0.5 1190.99 4.01472C1194.5 7.52944 1194.5 13.1863 1194.5 24.5V128.5C1194.5 139.814 1194.5 145.471 1190.99 148.985C1187.47 152.5 1181.81 152.5 1170.5 152.5H24.5C13.1863 152.5 7.52944 152.5 4.01472 148.985C0.5 145.471 0.5 139.814 0.5 128.5V24.5Z" fill="#8F68FF"/>
</svg>
